<mxfile host="app.diagrams.net" modified="2024-07-15T02:54:52.554Z" agent="Mozilla/5.0 (Windows NT 10.0; Win64; x64) AppleWebKit/537.36 (KHTML, like Gecko) Chrome/126.0.0.0 Safari/537.36" etag="DWzE1QGsygZZYK2vNxWO" version="24.6.5" type="github">
  <diagram id="C5RBs43oDa-KdzZeNtuy" name="Page-1">
    <mxGraphModel dx="1912" dy="1168" grid="1" gridSize="10" guides="1" tooltips="1" connect="1" arrows="1" fold="1" page="1" pageScale="1" pageWidth="827" pageHeight="1169" math="0" shadow="0">
      <root>
        <mxCell id="WIyWlLk6GJQsqaUBKTNV-0" />
        <mxCell id="WIyWlLk6GJQsqaUBKTNV-1" parent="WIyWlLk6GJQsqaUBKTNV-0" />
        <mxCell id="fliQieb9liT5PC1pVuuj-0" value="start" style="strokeWidth=2;html=1;shape=mxgraph.flowchart.terminator;whiteSpace=wrap;" vertex="1" parent="WIyWlLk6GJQsqaUBKTNV-1">
          <mxGeometry x="330" y="290" width="168" height="60" as="geometry" />
        </mxCell>
        <mxCell id="fliQieb9liT5PC1pVuuj-1" value="a = int(input())" style="verticalLabelPosition=middle;verticalAlign=middle;html=1;shape=trapezoid;perimeter=trapezoidPerimeter;whiteSpace=wrap;size=0.10135135135135136;arcSize=10;flipV=1;labelPosition=center;align=center;" vertex="1" parent="WIyWlLk6GJQsqaUBKTNV-1">
          <mxGeometry x="330" y="380" width="168" height="60" as="geometry" />
        </mxCell>
        <mxCell id="fliQieb9liT5PC1pVuuj-3" value="" style="endArrow=classic;html=1;rounded=0;" edge="1" parent="WIyWlLk6GJQsqaUBKTNV-1">
          <mxGeometry width="50" height="50" relative="1" as="geometry">
            <mxPoint x="414" y="350" as="sourcePoint" />
            <mxPoint x="414" y="380" as="targetPoint" />
          </mxGeometry>
        </mxCell>
        <mxCell id="fliQieb9liT5PC1pVuuj-4" value="c = int(input())" style="verticalLabelPosition=middle;verticalAlign=middle;html=1;shape=trapezoid;perimeter=trapezoidPerimeter;whiteSpace=wrap;size=0.08928571428571427;arcSize=10;flipV=1;labelPosition=center;align=center;" vertex="1" parent="WIyWlLk6GJQsqaUBKTNV-1">
          <mxGeometry x="330" y="470" width="168" height="60" as="geometry" />
        </mxCell>
        <mxCell id="fliQieb9liT5PC1pVuuj-8" value="" style="endArrow=classic;html=1;rounded=0;" edge="1" parent="WIyWlLk6GJQsqaUBKTNV-1">
          <mxGeometry width="50" height="50" relative="1" as="geometry">
            <mxPoint x="413.9" y="440" as="sourcePoint" />
            <mxPoint x="413.9" y="470" as="targetPoint" />
          </mxGeometry>
        </mxCell>
        <mxCell id="fliQieb9liT5PC1pVuuj-9" value="" style="endArrow=classic;html=1;rounded=0;" edge="1" parent="WIyWlLk6GJQsqaUBKTNV-1">
          <mxGeometry width="50" height="50" relative="1" as="geometry">
            <mxPoint x="413.9" y="530" as="sourcePoint" />
            <mxPoint x="413.9" y="560" as="targetPoint" />
          </mxGeometry>
        </mxCell>
        <mxCell id="fliQieb9liT5PC1pVuuj-10" value="a, c = a**2, c**2" style="whiteSpace=wrap;html=1;arcSize=10;" vertex="1" parent="WIyWlLk6GJQsqaUBKTNV-1">
          <mxGeometry x="330" y="560" width="168" height="60" as="geometry" />
        </mxCell>
        <mxCell id="fliQieb9liT5PC1pVuuj-12" style="edgeStyle=orthogonalEdgeStyle;rounded=0;orthogonalLoop=1;jettySize=auto;html=1;exitX=0.5;exitY=1;exitDx=0;exitDy=0;" edge="1" parent="WIyWlLk6GJQsqaUBKTNV-1" source="fliQieb9liT5PC1pVuuj-10" target="fliQieb9liT5PC1pVuuj-10">
          <mxGeometry relative="1" as="geometry" />
        </mxCell>
        <mxCell id="fliQieb9liT5PC1pVuuj-18" value="b_square = c - a" style="whiteSpace=wrap;html=1;arcSize=10;" vertex="1" parent="WIyWlLk6GJQsqaUBKTNV-1">
          <mxGeometry x="330" y="650" width="168" height="60" as="geometry" />
        </mxCell>
        <mxCell id="fliQieb9liT5PC1pVuuj-19" value="" style="endArrow=classic;html=1;rounded=0;" edge="1" parent="WIyWlLk6GJQsqaUBKTNV-1">
          <mxGeometry width="50" height="50" relative="1" as="geometry">
            <mxPoint x="413.9" y="620" as="sourcePoint" />
            <mxPoint x="413.9" y="650" as="targetPoint" />
          </mxGeometry>
        </mxCell>
        <mxCell id="fliQieb9liT5PC1pVuuj-20" value="print(b_square)" style="shape=parallelogram;html=1;strokeWidth=2;perimeter=parallelogramPerimeter;whiteSpace=wrap;rounded=1;arcSize=12;size=0.23;" vertex="1" parent="WIyWlLk6GJQsqaUBKTNV-1">
          <mxGeometry x="324" y="740" width="180" height="65" as="geometry" />
        </mxCell>
        <mxCell id="fliQieb9liT5PC1pVuuj-23" value="" style="endArrow=classic;html=1;rounded=0;" edge="1" parent="WIyWlLk6GJQsqaUBKTNV-1">
          <mxGeometry width="50" height="50" relative="1" as="geometry">
            <mxPoint x="413.9" y="710" as="sourcePoint" />
            <mxPoint x="413.9" y="740" as="targetPoint" />
          </mxGeometry>
        </mxCell>
        <mxCell id="fliQieb9liT5PC1pVuuj-24" value="start" style="strokeWidth=2;html=1;shape=mxgraph.flowchart.terminator;whiteSpace=wrap;" vertex="1" parent="WIyWlLk6GJQsqaUBKTNV-1">
          <mxGeometry x="330" y="836" width="168" height="60" as="geometry" />
        </mxCell>
        <mxCell id="fliQieb9liT5PC1pVuuj-25" value="" style="endArrow=classic;html=1;rounded=0;" edge="1" parent="WIyWlLk6GJQsqaUBKTNV-1">
          <mxGeometry width="50" height="50" relative="1" as="geometry">
            <mxPoint x="413.85999999999996" y="805" as="sourcePoint" />
            <mxPoint x="413.85999999999996" y="835" as="targetPoint" />
          </mxGeometry>
        </mxCell>
      </root>
    </mxGraphModel>
  </diagram>
</mxfile>
